<?xml version="1.0" standalone="no"?><!DOCTYPE svg PUBLIC "-//W3C//DTD SVG 1.1//EN" "http://www.w3.org/Graphics/SVG/1.1/DTD/svg11.dtd"><svg t="1495184784373" class="icon" style="" viewBox="0 0 1024 1024" version="1.1" xmlns="http://www.w3.org/2000/svg" p-id="1302" xmlns:xlink="http://www.w3.org/1999/xlink" width="32" height="32"><defs><style type="text/css"></style></defs><path d="M950.149059 908.196531 679.876679 636.272351c50.381475-60.327994 80.71249-137.979538 80.71249-222.724641 0-192.031595-155.671717-347.704097-347.719367-347.704097-192.032299 0-347.704017 155.671479-347.704017 347.704097 0 192.032618 155.67274 347.704097 347.704017 347.704097 87.264988 0 167.015531-32.148188 228.067457-85.23936l269.864065 271.526113c10.863864 10.865465 28.481825 10.865465 39.347735 0C961.001666 936.672072 961.001666 919.063019 950.149059 908.196531zM412.869802 706.07923c-161.553922 0-292.531226-130.970914-292.531226-292.532543 0-161.559583 130.977303-292.533566 292.531226-292.533566 161.579506 0 292.559879 130.97296 292.559879 292.533566C705.428658 575.108317 574.448284 706.07923 412.869802 706.07923z" p-id="1303"></path></svg>